<svg width="400" height="800" viewBox="0 0 400 800" fill="none" xmlns="http://www.w3.org/2000/svg">
  <!-- Device Frame -->
  <rect x="10" y="10" width="380" height="780" rx="40" fill="#050810" stroke="white" stroke-opacity="0.2" stroke-width="4"/>
  <rect x="150" y="30" width="100" height="30" rx="15" fill="#000"/>
  
  <!-- Screen Background -->
  <rect x="25" y="70" width="350" height="660" rx="20" fill="#0A0F1A"/>
  
  <!-- Header -->
  <text x="45" y="110" fill="white" font-family="Arial" font-weight="bold" font-size="18">DataPulse</text>
  <circle cx="340" cy="105" r="15" fill="white" fill-opacity="0.1"/>
  <path d="M335 105 H345 M340 100 V110" stroke="white" stroke-width="2"/>

  <!-- Chat Content -->
  <rect x="40" y="140" width="280" height="60" rx="16" fill="url(#mobile_grad)" fill-opacity="0.9"/>
  <text x="55" y="175" fill="#050810" font-family="Arial" font-size="14">查询上海地区的销售密度热力图</text>
  
  <rect x="40" y="215" width="320" height="150" rx="16" fill="white" fill-opacity="0.05" stroke="white" stroke-opacity="0.1"/>
  <text x="55" y="245" fill="#06D6A0" font-family="Arial" font-size="12" font-weight="bold">AI 正在处理...</text>
  <rect x="55" y="260" width="290" height="40" rx="8" fill="white" fill-opacity="0.03"/>
  <text x="65" y="285" fill="white" fill-opacity="0.5" font-family="Arial" font-size="10">执行 SQL: SELECT * FROM geo_sales WHERE...</text>
  
  <!-- Map Preview Placeholder -->
  <rect x="55" y="315" width="290" height="150" rx="12" fill="#3B82F6" fill-opacity="0.1"/>
  <circle cx="200" cy="390" r="30" fill="#06D6A0" fill-opacity="0.5" filter="blur(10px)"/>
  <circle cx="230" cy="370" r="20" fill="#3B82F6" fill-opacity="0.4" filter="blur(8px)"/>
  <text x="140" y="450" fill="white" fill-opacity="0.5" font-family="Arial" font-size="10">上海地区销售密度热力图</text>

  <!-- Navigation Bar -->
  <rect x="25" y="660" width="350" height="70" rx="0" fill="white" fill-opacity="0.02"/>
  <circle cx="100" cy="695" r="18" fill="white" fill-opacity="0.1"/>
  <circle cx="200" cy="695" r="18" fill="#3B82F6" fill-opacity="0.2"/>
  <circle cx="300" cy="695" r="18" fill="white" fill-opacity="0.1"/>

  <defs>
    <linearGradient id="mobile_grad" x1="0" y1="0" x2="1" y2="0">
      <stop stop-color="#3B82F6"/>
      <stop offset="1" stop-color="#06D6A0"/>
    </linearGradient>
  </defs>
</svg>
